# File created by Blade
# Date/Time:  Tue Sep 30 19:36:36 2014
#---------------------------------------------------------
:version 1.10
:name HOM
:units
  mass 1.0
  length 1.000000
  angle deg
:documentation
     Acclaim Skeleton File
:root
   axis xyz
   order TX TY TZ RX RY RZ
   position 0.000000 0.000000 0.000000
   orientation 0 0 0
:bonedata
   begin
      id 1
      name Spine_dum
      direction 0.000000 1.000000 0.000000
      length 3.241213
      axis 0.0 0.0 0.0 xyz
   end
   begin
      id 2
      name LeftUpLeg_dum
      direction 1.000000 0.000000 0.000000
      length 3.434019
      axis 0.0 0.0 0.0 xyz
   end
   begin
      id 3
      name RightUpLeg_dum
      direction -1.000000 0.000000 0.000000
      length 3.434019
      axis 0.0 0.0 0.0 xyz
   end
   begin
      id 4
      name Spine
      direction 0.000000 1.000000 0.000000
      length 0.000000
      axis 0.0 0.0 0.0 xyz
      dof rx ry rz
   end
   begin
      id 5
      name Spine_dum1
      direction 0.000000 1.000000 0.000000
      length 18.382958
      axis 0.0 0.0 0.0 xyz
   end
   begin
      id 6
      name Spine_dum2
      direction 0.000000 1.000000 0.000000
      length 12.828261
      axis 0.0 0.0 0.0 xyz
   end
   begin
      id 7
      name Spine_dum3
      direction 0.000000 1.000000 0.000000
      length 12.828261
      axis 0.0 0.0 0.0 xyz
   end
   begin
      id 8
      name Head
      direction 0.000000 1.000000 0.000000
      length 4.527550
      axis 0.0 0.0 0.0 xyz
      dof rx ry rz
   end
   begin
      id 9
      name LeftShoulder
      direction 1.000000 0.000000 0.000000
      length 7.748055
      axis 0.0 0.0 -90.0 xyz
      dof rx ry rz
   end
   begin
      id 10
      name LeftArm
      direction 1.000000 0.000000 0.000000
      length 10.635614
      axis 0.0 0.0 -90.0 xyz
      dof rx ry rz
   end
   begin
      id 11
      name LeftForeArm
      direction 1.000000 0.000000 0.000000
      length 8.346755
      axis 0.0 0.0 -90.0 xyz
      dof ry rz rx
   end
   begin
      id 12
      name LeftHand
      direction 0.000000 0.000000 0.000000
      length 0.000000
      axis 0.0 0.0 -90.0 xyz
      dof rx ry rz
   end
   begin
      id 13
      name LeftHand_dum1
      direction 0.000000 0.000000 0.000000
      length 0.000000
      axis 0.0 0.0 -90.0 xyz
   end
   begin
      id 14
      name LeftHand_dum2
      direction 1.000000 0.000000 0.000000
      length 3.937000
      axis 0.0 0.0 -90.0 xyz
   end
   begin
      id 15
      name LeftHandThumb1
      direction 0.000000 0.000000 1.000000
      length 3.937000
      axis 0.0 0.0 -90.0 xyz
      dof rx rz ry
   end
   begin
      id 16
      name RightShoulder
      direction -1.000000 0.000000 0.000000
      length 7.748055
      axis 0.0 0.0 90.0 xyz
      dof rx ry rz
   end
   begin
      id 17
      name RightArm
      direction -1.000000 0.000000 0.000000
      length 10.635614
      axis 0.0 0.0 90.0 xyz
      dof rx ry rz
   end
   begin
      id 18
      name RightForeArm
      direction -1.000000 0.000000 0.000000
      length 8.346755
      axis 0.0 0.0 90.0 xyz
      dof ry rz rx
   end
   begin
      id 19
      name RightHand
      direction 0.000000 0.000000 0.000000
      length 0.000000
      axis 0.0 0.0 90.0 xyz
      dof rx ry rz
   end
   begin
      id 20
      name RightHand_dum1
      direction 0.000000 0.000000 0.000000
      length 0.000000
      axis 0.0 0.0 90.0 xyz
   end
   begin
      id 21
      name RightHand_dum2
      direction -1.000000 0.000000 0.000000
      length 3.937000
      axis 0.0 0.0 90.0 xyz
   end
   begin
      id 22
      name RightHandThumb1
      direction 0.000000 0.000000 1.000000
      length 3.937000
      axis 0.0 0.0 90.0 xyz
      dof rx rz ry
   end
   begin
      id 23
      name LeftUpLeg
      direction 0.000000 -1.000000 0.000000
      length 15.713025
      axis 0.0 0.0 0.0 xyz
      dof rx ry rz
   end
   begin
      id 24
      name LeftLeg
      direction 0.000000 -1.000000 0.000000
      length 14.435119
      axis 0.0 0.0 0.0 xyz
      dof rx ry rz
   end
   begin
      id 25
      name LeftFoot
      direction 0.000000 -0.258819 0.965926
      length 4.938895
      axis 15.0 0.0 0.0 xyz
      dof rx ry rz
   end
   begin
      id 26
      name LeftToeBase
      direction 0.000000 0.000000 1.000000
      length 2.952750
      axis 0.0 0.0 0.0 xyz
      dof rx ry rz
   end
   begin
      id 27
      name RightUpLeg
      direction 0.000000 -1.000000 0.000000
      length 15.713025
      axis 0.0 0.0 0.0 xyz
      dof rx ry rz
   end
   begin
      id 28
      name RightLeg
      direction 0.000000 -1.000000 0.000000
      length 14.435119
      axis 0.0 0.0 0.0 xyz
      dof rx ry rz
   end
   begin
      id 29
      name RightFoot
      direction 0.000000 -0.258819 0.965926
      length 4.938895
      axis 15.0 0.0 0.0 xyz
      dof rx ry rz
   end
   begin
      id 30
      name RightToeBase
      direction 0.000000 0.000000 1.000000
      length 2.952750
      axis 0.0 0.0 0.0 xyz
      dof rx ry rz
   end
:hierarchy
   begin
      root Spine_dum LeftUpLeg_dum RightUpLeg_dum
      Spine_dum Spine
      LeftUpLeg_dum LeftUpLeg
      RightUpLeg_dum RightUpLeg
      Spine Spine_dum1 Spine_dum2 Spine_dum3
      Spine_dum1 Head
      Spine_dum2 LeftShoulder
      Spine_dum3 RightShoulder
      LeftShoulder LeftArm
      LeftArm LeftForeArm
      LeftForeArm LeftHand
      LeftHand LeftHand_dum1 LeftHand_dum2
      LeftHand_dum1 LeftHandThumb1
      RightShoulder RightArm
      RightArm RightForeArm
      RightForeArm RightHand
      RightHand RightHand_dum1 RightHand_dum2
      RightHand_dum1 RightHandThumb1
      LeftUpLeg LeftLeg
      LeftLeg LeftFoot
      LeftFoot LeftToeBase
      RightUpLeg RightLeg
      RightLeg RightFoot
      RightFoot RightToeBase
   end

# File created by Blade
# Date/Time:  Tue Sep 23 19:22:32 2014
# Frame Rate: 120.000 fps
#------------------------------------------------------
:FULLY-SPECIFIED
:DEGREES
1030
root 1.707793 34.411439 -0.237469 123.534813 3.261189 -35.140668
Spine -71.010318 -4.599228 25.178122
Head -30.515009 25.602259 36.276799
LeftShoulder -20.061271 29.636167 37.293411
LeftArm 127.834452 -70.995402 -143.720829
LeftForeArm -6.805446 -0.000000 101.465900
LeftHand 44.218687 -0.000000 2.348711
LeftHandThumb1 -26.253704 0.000000 33.147579
RightShoulder -36.981024 -36.629413 -5.632080
RightArm 45.121346 70.520226 98.087332
RightForeArm 41.272850 -0.000000 27.138548
RightHand 5.746453 -0.000000 -7.015372
RightHandThumb1 -24.326973 -0.000000 -32.862282
LeftUpLeg -118.207398 34.955275 -5.637280
LeftLeg -7.193580 -0.000000 0.000000
LeftFoot 3.432774 -1.048573 10.350670
LeftToeBase -4.665843 -0.000000 0.000000
RightUpLeg 1.412845 10.461166 -33.287714
RightLeg 76.468877 -0.000000 -0.000000
RightFoot 44.406962 20.532646 -4.703916
RightToeBase 33.725852 -0.000000 -0.000000
1031
root 1.755882 34.380674 -0.259989 123.774633 3.277605 -34.687714
Spine -71.053189 -4.678453 25.112123
Head -31.137557 25.539765 35.991612
LeftShoulder -19.977636 29.451128 37.389822
LeftArm 128.060334 -71.098782 -143.723612
LeftForeArm -7.554467 -0.000000 101.351008
LeftHand 44.303164 0.000000 2.194153
LeftHandThumb1 -26.253704 0.000000 33.147579
RightShoulder -37.077621 -36.636525 -5.536269
RightArm 45.894887 70.687124 99.190891
RightForeArm 40.765850 -0.000000 27.901393
RightHand 5.627327 -0.000000 -7.502084
RightHandThumb1 -24.326973 -0.000000 -32.862282
LeftUpLeg -118.425882 34.490604 -5.409460
LeftLeg -7.231001 -0.000000 0.000000
LeftFoot 3.524953 -1.104168 10.484837
LeftToeBase -4.761264 -0.000000 0.000000
RightUpLeg 1.461916 10.521584 -33.188848
RightLeg 76.542348 -0.000000 -0.000000
RightFoot 44.394508 20.663723 -4.795193
RightToeBase 33.663307 -0.000000 -0.000000
1032
root 1.805790 34.354528 -0.281614 124.079035 3.318238 -34.274331
Spine -71.138665 -4.693845 25.037748
Head -31.715561 25.445938 35.747658
LeftShoulder -19.889525 29.295067 37.503583
LeftArm 128.380624 -71.135909 -143.834433
LeftForeArm -7.921486 -0.000000 101.227288
LeftHand 44.374520 -0.000000 1.956639
LeftHandThumb1 -26.253704 0.000000 33.147579
RightShoulder -37.241883 -36.555719 -5.440061
RightArm 46.767240 70.841700 100.414860
RightForeArm 39.964859 -0.000000 28.721709
RightHand 5.373032 -0.000000 -7.958565
RightHandThumb1 -24.326973 -0.000000 -32.862282
LeftUpLeg -118.678073 34.113790 -5.155938
LeftLeg -7.258195 -0.000000 0.000000
LeftFoot 3.695347 -1.059170 10.404243
LeftToeBase -5.130182 -0.000000 0.000000
RightUpLeg 1.387071 10.602318 -33.095426
RightLeg 76.698497 -0.000000 -0.000000
RightFoot 44.254595 20.779924 -4.826123
RightToeBase 33.925213 -0.000000 -0.000000
1033
root 1.854016 34.336654 -0.302717 124.469690 3.460514 -34.028454
Spine -71.246423 -4.515946 24.987216
Head -32.207346 25.384415 35.523394
LeftShoulder -19.845333 29.256456 37.592781
LeftArm 128.642273 -71.146279 -143.848400
LeftForeArm -8.747557 -0.000000 101.070908
LeftHand 44.466890 -0.000000 1.707350
LeftHandThumb1 -26.253704 0.000000 33.147579
RightShoulder -37.284942 -36.553725 -5.342781
RightArm 47.479696 71.039652 101.567742
RightForeArm 39.287617 -0.000000 29.625797
RightHand 5.071970 -0.000000 -8.200329
RightHandThumb1 -24.326973 -0.000000 -32.862282
LeftUpLeg -119.077894 33.958177 -4.974277
LeftLeg -7.304741 -0.000000 0.000000
LeftFoot 3.824871 -1.039855 10.446503
LeftToeBase -5.238224 -0.000000 0.000000
RightUpLeg 1.002375 10.723726 -33.090834
RightLeg 76.995902 -0.000000 -0.000000
RightFoot 44.203408 20.853920 -4.900063
RightToeBase 33.955029 -0.000000 -0.000000
1034
root 1.908986 34.304868 -0.321909 124.649139 3.296034 -33.567837
Spine -71.296418 -4.722806 24.787781
Head -32.747294 25.324701 35.291167
LeftShoulder -19.800580 29.255696 37.665876
LeftArm 129.026316 -71.112423 -144.035335
LeftForeArm -9.135096 -0.000000 100.944010
LeftHand 44.481135 0.000000 1.536775
LeftHandThumb1 -26.253704 0.000000 33.147579
RightShoulder -37.393376 -36.456460 -5.212365
RightArm 48.268868 71.253966 102.760643
RightForeArm 38.651977 -0.000000 30.535730
RightHand 4.764803 0.000000 -8.421731
RightHandThumb1 -24.326973 -0.000000 -32.862282
LeftUpLeg -119.140474 33.388303 -4.837920
LeftLeg -7.478928 -0.000000 0.000000
LeftFoot 3.792832 -1.149770 10.986150
LeftToeBase -4.772834 -0.000000 0.000000
RightUpLeg 1.090342 10.651162 -33.170845
RightLeg 77.169560 -0.000000 -0.000000
RightFoot 44.204618 20.945696 -4.944534
RightToeBase 33.970912 -0.000000 -0.000000
1035
root 1.967377 34.281338 -0.341753 125.034550 3.261634 -33.181355
Spine -71.480334 -4.721806 24.708275
Head -33.218037 25.275960 35.020170
LeftShoulder -19.736530 29.194465 37.813609
LeftArm 129.216847 -71.164302 -144.098123
LeftForeArm -9.368293 0.000000 100.781416
LeftHand 44.562941 -0.000000 1.508354
LeftHandThumb1 -26.253704 0.000000 33.147579
RightShoulder -37.525353 -36.364124 -5.134714
RightArm 49.137592 71.364921 104.076283
RightForeArm 37.893741 0.000000 31.456959
RightHand 4.440835 0.000000 -8.667364
RightHandThumb1 -24.326973 -0.000000 -32.862282
LeftUpLeg -119.522618 32.947491 -4.774874
LeftLeg -7.543780 -0.000000 0.000000
LeftFoot 3.948197 -1.278270 10.913502
LeftToeBase -4.999043 -0.000000 0.000000
RightUpLeg 0.833748 10.534272 -33.248869
RightLeg 77.439313 -0.000000 -0.000000
RightFoot 44.259389 21.026951 -5.034358
RightToeBase 33.904114 -0.000000 -0.000000
1036
root 2.022204 34.258609 -0.361236 125.245594 3.151423 -32.838327
Spine -71.519916 -4.836006 24.555838
Head -33.683513 25.309646 34.790742
LeftShoulder -19.742510 29.245371 37.871417
LeftArm 129.540410 -71.116475 -144.230639
LeftForeArm -9.935081 0.000000 100.690846
LeftHand 44.617641 0.000000 1.265296
LeftHandThumb1 -26.253704 0.000000 33.147579
RightShoulder -37.612466 -36.184681 -5.050608
RightArm 49.898422 71.509588 105.288188
RightForeArm 37.248968 0.000000 32.426528
RightHand 4.131947 -0.000000 -8.842639
RightHandThumb1 -24.326973 -0.000000 -32.862282
LeftUpLeg -119.668108 32.531990 -4.673502
LeftLeg -7.639137 -0.000000 0.000000
LeftFoot 4.076273 -1.369575 10.903428
LeftToeBase -5.145984 -0.000000 0.000000
RightUpLeg 0.733094 10.490974 -33.385446
RightLeg 77.740655 -0.000000 -0.000000
RightFoot 44.175607 21.088010 -5.146518
RightToeBase 33.997331 -0.000000 -0.000000
1037
root 2.078363 34.236817 -0.377486 125.561597 3.058895 -32.474813
Spine -71.678629 -4.911229 24.477088
Head -34.059178 25.361600 34.558272
LeftShoulder -19.717315 29.203376 37.966847
LeftArm 129.684338 -71.248160 -144.170476
LeftForeArm -10.157432 -0.000000 100.535462
LeftHand 44.602927 -0.000000 1.351185
LeftHandThumb1 -26.253704 0.000000 33.147579
RightShoulder -37.730109 -36.089131 -4.902778
RightArm 50.937562 71.576698 106.693608
RightForeArm 36.617647 -0.000000 33.300516
RightHand 3.835768 -0.000000 -8.946824
RightHandThumb1 -24.326973 -0.000000 -32.862282
LeftUpLeg -119.967392 32.056165 -4.681332
LeftLeg -7.749688 -0.000000 0.000000
LeftFoot 4.211499 -1.534469 10.928796
LeftToeBase -5.216904 -0.000000 0.000000
RightUpLeg 0.539553 10.370935 -33.509688
RightLeg 78.046482 -0.000000 -0.000000
RightFoot 44.041506 21.028641 -5.222191
RightToeBase 34.056279 -0.000000 -0.000000
